<?xml version="1.0" standalone="no"?>
<!DOCTYPE svg PUBLIC "-//W3C//DTD SVG 20010904//EN"
 "http://www.w3.org/TR/2001/REC-SVG-20010904/DTD/svg10.dtd">
<svg version="1.0" xmlns="http://www.w3.org/2000/svg"
 width="1024.000000pt" height="1024.000000pt" viewBox="0 0 1024.000000 1024.000000"
 preserveAspectRatio="xMidYMid meet">

<g transform="translate(0.000000,1024.000000) scale(0.100000,-0.100000)"
fill="#000000" stroke="none">
<path d="M0 5120 l0 -5120 5120 0 5120 0 0 5120 0 5120 -5120 0 -5120 0 0
-5120z m5460 1527 c206 -49 414 -141 573 -254 166 -118 351 -324 453 -505 83
-146 160 -368 185 -533 13 -89 15 -339 4 -525 -9 -144 2 -147 -143 35 -53 66
-114 140 -137 165 -22 25 -60 68 -84 95 -80 90 -111 147 -132 240 -48 223
-193 458 -365 595 -310 246 -692 315 -1058 191 -305 -104 -559 -359 -665 -668
-50 -149 -66 -394 -36 -566 70 -401 383 -735 790 -843 58 -16 105 -19 275 -18
222 1 283 11 422 69 35 15 68 27 75 28 6 1 76 -81 156 -183 126 -160 143 -186
128 -196 -85 -58 -248 -130 -373 -165 -174 -49 -441 -65 -633 -39 -333 46
-649 212 -901 472 -397 411 -534 964 -378 1523 145 518 579 938 1106 1069 160
40 208 45 428 41 176 -3 220 -7 310 -28z m394 -1632 c126 -39 159 -65 308
-247 73 -90 199 -244 281 -343 109 -132 160 -203 193 -268 l44 -89 0 -264 0
-264 -41 0 c-38 0 -47 6 -122 83 -45 45 -152 161 -237 257 -144 162 -192 218
-415 480 -99 117 -298 357 -385 465 -35 44 -81 100 -102 124 -39 45 -48 75
-25 84 6 3 104 6 216 6 192 1 210 -1 285 -24z"/>
</g>
</svg>
