<?xml version="1.0" standalone="no"?>
<!DOCTYPE svg PUBLIC "-//W3C//DTD SVG 20010904//EN"
 "http://www.w3.org/TR/2001/REC-SVG-20010904/DTD/svg10.dtd">
<svg version="1.0" xmlns="http://www.w3.org/2000/svg"
 width="1024.000000pt" height="1024.000000pt" viewBox="0 0 1024.000000 1024.000000"
 preserveAspectRatio="xMidYMid meet">

<g transform="translate(0.000000,1024.000000) scale(0.100000,-0.100000)"
fill="#000000" stroke="none">
<path d="M2184 7575 c-225 -50 -429 -223 -515 -436 -57 -144 -53 -22 -57
-1674 -2 -1048 1 -1542 8 -1590 24 -152 83 -273 190 -388 116 -124 246 -201
393 -231 66 -14 195 -16 986 -16 l910 0 223 -290 223 -290 508 0 c279 0 507 3
507 6 0 3 -40 56 -88 117 -95 121 -554 724 -566 744 -4 8 5 31 22 55 43 63 67
114 93 198 l24 75 0 1580 0 1580 -27 80 c-40 116 -92 199 -183 290 -89 89
-158 133 -267 173 l-73 27 -1125 2 c-916 1 -1136 -1 -1186 -12z m1856 -1945
l0 -1040 -405 0 -406 0 73 -87 c40 -49 121 -145 180 -215 l109 -128 -486 0
-485 0 0 1255 0 1255 710 0 710 0 0 -1040z"/>
<path d="M5440 5415 l0 -2175 500 0 500 0 0 860 0 860 585 0 585 0 0 -860 0
-860 495 0 495 0 0 2175 0 2175 -495 0 -495 0 0 -830 0 -830 -585 0 -585 0 0
830 0 830 -500 0 -500 0 0 -2175z"/>
</g>
</svg>
